HIERARCHY
ROOT Hips
{
  OFFSET 0.000 73.904 0.000
  CHANNELS 6 Xposition Yposition Zposition Zrotation Xrotation Yrotation
  JOINT LeftUpLeg
  {
    OFFSET 7.940 0.767 3.298
    CHANNELS 6 Xposition Yposition Zposition Zrotation Xrotation Yrotation
    JOINT LeftLeg
    {
      OFFSET 0.000 -31.440 0.000
      CHANNELS 6 Xposition Yposition Zposition Zrotation Xrotation Yrotation
      JOINT LeftFoot
      {
        OFFSET 0.000 -43.232 0.000
        CHANNELS 6 Xposition Yposition Zposition Zrotation Xrotation Yrotation
        End Site
        {
          OFFSET 0.000 0.000 10.700
        }
      }
    }
  }
  JOINT RightUpLeg
  {
    OFFSET -7.940 0.767 3.298
    CHANNELS 6 Xposition Yposition Zposition Zrotation Xrotation Yrotation
    JOINT RightLeg
    {
      OFFSET 0.000 -31.440 0.000
      CHANNELS 6 Xposition Yposition Zposition Zrotation Xrotation Yrotation
      JOINT RightFoot
      {
        OFFSET 0.000 -43.232 0.000
        CHANNELS 6 Xposition Yposition Zposition Zrotation Xrotation Yrotation
        End Site
        {
          OFFSET 0.000 0.000 10.700
        }
      }
    }
  }
  JOINT Spine
  {
    OFFSET 0.000 24.571 0.000
    CHANNELS 6 Xposition Yposition Zposition Zrotation Xrotation Yrotation
    JOINT Spine1
    {
      OFFSET 0.000 18.115 0.000
      CHANNELS 6 Xposition Yposition Zposition Zrotation Xrotation Yrotation
      JOINT LeftShoulder
      {
        OFFSET 1.926 0.222 -0.093
        CHANNELS 6 Xposition Yposition Zposition Zrotation Xrotation Yrotation
        JOINT LeftArm
        {
          OFFSET 17.605 0.000 0.000
          CHANNELS 6 Xposition Yposition Zposition Zrotation Xrotation Yrotation
          JOINT LeftForeArm
          {
            OFFSET 20.033 0.000 0.000
            CHANNELS 6 Xposition Yposition Zposition Zrotation Xrotation Yrotation
            JOINT LeftHand
            {
              OFFSET 21.156 0.000 0.000
              CHANNELS 6 Xposition Yposition Zposition Zrotation Xrotation Yrotation
              JOINT LeftHandThumb1
              {
                OFFSET 4.877 -1.044 3.608
                CHANNELS 6 Xposition Yposition Zposition Zrotation Xrotation Yrotation
                JOINT LeftHandThumb2
                {
                  OFFSET 2.665 0.000 0.000
                  CHANNELS 6 Xposition Yposition Zposition Zrotation Xrotation Yrotation
                  JOINT LeftHandThumb3
                  {
                    OFFSET 2.543 0.000 0.000
                    CHANNELS 6 Xposition Yposition Zposition Zrotation Xrotation Yrotation
                    End Site
                    {
                      OFFSET 2.667 -0.000 -0.000
                    }
                  }
                }
              }
              JOINT LeftHandIndex1
              {
                OFFSET 9.232 -0.301 2.144
                CHANNELS 6 Xposition Yposition Zposition Zrotation Xrotation Yrotation
                JOINT LeftHandIndex2
                {
                  OFFSET 4.225 0.000 0.000
                  CHANNELS 6 Xposition Yposition Zposition Zrotation Xrotation Yrotation
                  JOINT LeftHandIndex3
                  {
                    OFFSET 2.654 -0.000 -0.000
                    CHANNELS 6 Xposition Yposition Zposition Zrotation Xrotation Yrotation
                    End Site
                    {
                      OFFSET 1.958 0.000 0.000
                    }
                  }
                }
              }
              JOINT LeftHandMiddle1
              {
                OFFSET 8.920 -0.000 -0.000
                CHANNELS 6 Xposition Yposition Zposition Zrotation Xrotation Yrotation
                JOINT LeftHandMiddle2
                {
                  OFFSET 4.863 0.000 -0.000
                  CHANNELS 6 Xposition Yposition Zposition Zrotation Xrotation Yrotation
                  JOINT LeftHandMiddle3
                  {
                    OFFSET 2.765 -0.000 -0.000
                    CHANNELS 6 Xposition Yposition Zposition Zrotation Xrotation Yrotation
                    End Site
                    {
                      OFFSET 2.006 0.000 0.000
                    }
                  }
                }
              }
              JOINT LeftHandRing1
              {
                OFFSET 8.689 -0.126 -2.087
                CHANNELS 6 Xposition Yposition Zposition Zrotation Xrotation Yrotation
                JOINT LeftHandRing2
                {
                  OFFSET 4.538 0.000 0.000
                  CHANNELS 6 Xposition Yposition Zposition Zrotation Xrotation Yrotation
                  JOINT LeftHandRing3
                  {
                    OFFSET 2.305 0.000 0.000
                    CHANNELS 6 Xposition Yposition Zposition Zrotation Xrotation Yrotation
                    End Site
                    {
                      OFFSET 1.923 -0.000 0.000
                    }
                  }
                }
              }
              JOINT LeftHandPinky1
              {
                OFFSET 8.391 -0.817 -3.758
                CHANNELS 6 Xposition Yposition Zposition Zrotation Xrotation Yrotation
                JOINT LeftHandPinky2
                {
                  OFFSET 3.044 0.000 0.000
                  CHANNELS 6 Xposition Yposition Zposition Zrotation Xrotation Yrotation
                  JOINT LeftHandPinky3
                  {
                    OFFSET 1.975 0.000 -0.000
                    CHANNELS 6 Xposition Yposition Zposition Zrotation Xrotation Yrotation
                    End Site
                    {
                      OFFSET 1.667 -0.000 0.000
                    }
                  }
                }
              }
            }
          }
        }
      }
      JOINT RightShoulder
      {
        OFFSET -1.926 0.222 -0.093
        CHANNELS 6 Xposition Yposition Zposition Zrotation Xrotation Yrotation
        JOINT RightArm
        {
          OFFSET -17.605 0.000 0.000
          CHANNELS 6 Xposition Yposition Zposition Zrotation Xrotation Yrotation
          JOINT RightForeArm
          {
            OFFSET -20.033 0.000 0.000
            CHANNELS 6 Xposition Yposition Zposition Zrotation Xrotation Yrotation
            JOINT RightHand
            {
              OFFSET -21.156 0.000 0.000
              CHANNELS 6 Xposition Yposition Zposition Zrotation Xrotation Yrotation
              JOINT RightHandThumb1
              {
                OFFSET -4.877 -1.044 3.608
                CHANNELS 6 Xposition Yposition Zposition Zrotation Xrotation Yrotation
                JOINT RightHandThumb2
                {
                  OFFSET -2.665 0.000 -0.000
                  CHANNELS 6 Xposition Yposition Zposition Zrotation Xrotation Yrotation
                  JOINT RightHandThumb3
                  {
                    OFFSET -2.543 0.000 0.000
                    CHANNELS 6 Xposition Yposition Zposition Zrotation Xrotation Yrotation
                    End Site
                    {
                      OFFSET -2.667 0.000 0.000
                    }
                  }
                }
              }
              JOINT RightHandIndex1
              {
                OFFSET -9.232 -0.301 2.144
                CHANNELS 6 Xposition Yposition Zposition Zrotation Xrotation Yrotation
                JOINT RightHandIndex2
                {
                  OFFSET -4.225 0.000 0.000
                  CHANNELS 6 Xposition Yposition Zposition Zrotation Xrotation Yrotation
                  JOINT RightHandIndex3
                  {
                    OFFSET -2.654 0.000 -0.000
                    CHANNELS 6 Xposition Yposition Zposition Zrotation Xrotation Yrotation
                    End Site
                    {
                      OFFSET -1.958 0.000 0.000
                    }
                  }
                }
              }
              JOINT RightHandMiddle1
              {
                OFFSET -8.920 0.000 0.000
                CHANNELS 6 Xposition Yposition Zposition Zrotation Xrotation Yrotation
                JOINT RightHandMiddle2
                {
                  OFFSET -4.863 0.000 0.000
                  CHANNELS 6 Xposition Yposition Zposition Zrotation Xrotation Yrotation
                  JOINT RightHandMiddle3
                  {
                    OFFSET -2.765 0.000 -0.000
                    CHANNELS 6 Xposition Yposition Zposition Zrotation Xrotation Yrotation
                    End Site
                    {
                      OFFSET -2.006 0.000 0.000
                    }
                  }
                }
              }
              JOINT RightHandRing1
              {
                OFFSET -8.689 -0.126 -2.087
                CHANNELS 6 Xposition Yposition Zposition Zrotation Xrotation Yrotation
                JOINT RightHandRing2
                {
                  OFFSET -4.538 -0.000 0.000
                  CHANNELS 6 Xposition Yposition Zposition Zrotation Xrotation Yrotation
                  JOINT RightHandRing3
                  {
                    OFFSET -2.305 0.000 0.000
                    CHANNELS 6 Xposition Yposition Zposition Zrotation Xrotation Yrotation
                    End Site
                    {
                      OFFSET -1.923 0.000 -0.000
                    }
                  }
                }
              }
              JOINT RightHandPinky1
              {
                OFFSET -8.391 -0.817 -3.758
                CHANNELS 6 Xposition Yposition Zposition Zrotation Xrotation Yrotation
                JOINT RightHandPinky2
                {
                  OFFSET -3.044 0.000 0.000
                  CHANNELS 6 Xposition Yposition Zposition Zrotation Xrotation Yrotation
                  JOINT RightHandPinky3
                  {
                    OFFSET -1.975 -0.000 -0.000
                    CHANNELS 6 Xposition Yposition Zposition Zrotation Xrotation Yrotation
                    End Site
                    {
                      OFFSET -1.667 -0.000 0.000
                    }
                  }
                }
              }
            }
          }
        }
      }
      JOINT Neck
      {
        OFFSET 0.000 0.598 0.000
        CHANNELS 6 Xposition Yposition Zposition Zrotation Xrotation Yrotation
        JOINT Head
        {
          OFFSET 0.000 5.402 0.000
          CHANNELS 6 Xposition Yposition Zposition Zrotation Xrotation Yrotation
          End Site
          {
            OFFSET 0.000 12.740 0.000
          }
        }
      }
    }
  }
}
MOTION
Frames:	4
Frame Time:	0.033333
-3.96633 88.42250 -196.02432 -10.03618 3.46687 14.49196 7.08004 0.94682 3.29394 24.08127 -7.70128 18.41721 0.10902 -34.72451 -0.25007 2.09305 21.54495 -7.28053 -0.00860 -43.37016 -0.02756 -0.53663 29.65340 -1.64206 -8.70614 0.33840 3.28519 -23.85530 -21.40443 -27.92911 -0.02294 -36.49155 -0.32105 11.22774 25.19457 18.77081 0.00369 -44.49984 -0.10746 -1.80190 11.21003 9.18086 -0.00440 24.19333 0.03492 0.65657 2.12419 2.89878 0.05569 17.78065 0.00768 0.83840 2.84900 2.64084 2.21303 0.14468 -0.21325 3.54083 0.21756 5.50999 20.67891 0.00643 -0.09591 18.37801 5.56401 -12.05216 17.56321 0.08275 -0.05206 -38.41624 6.72829 -82.99936 19.28593 -0.19663 0.00557 171.11368 43.55216 -176.90308 4.87700 -1.04402 3.60799 -38.23967 -16.71058 3.34318 2.66504 0.00001 0.00001 0.00000 -0.00000 5.29033 2.54300 0.00000 0.00000 -0.00000 0.00000 57.38705 9.23200 -0.30101 2.14398 0.72255 0.00000 -0.00000 4.22502 0.00001 0.00000 0.43223 -0.00000 -0.00000 2.65398 -0.00002 -0.00001 0.14190 -0.00067 -0.29033 8.92000 -0.00001 -0.00001 -76.51606 0.00000 0.00000 4.86300 0.00001 -0.00001 -86.22575 0.00000 -0.00001 2.76499 -0.00005 -0.00002 -67.67712 0.26855 -0.11032 8.68897 -0.12603 -2.08700 -76.51606 0.00000 0.00000 4.53801 0.00000 0.00000 -86.22575 0.00000 -0.00001 2.30501 0.00002 0.00000 -67.67712 0.26855 -0.11032 8.39102 -0.81699 -3.75801 0.72255 0.00000 -0.00000 3.04400 0.00000 0.00000 0.43223 -0.00000 -0.00000 1.97501 0.00001 -0.00002 0.14190 -0.00067 -0.29033 -1.88523 0.34875 -0.21691 -10.16516 1.16244 -6.59174 -18.30754 -0.32381 0.93466 -27.16095 -3.44688 9.13953 -19.45735 0.69329 -0.50375 9.27524 8.14753 61.35683 -24.41117 0.29462 -0.27192 12.13217 17.64260 -3.18428 -4.87701 -1.04399 3.60799 24.66678 4.21007 9.07820 -2.66504 0.00000 -0.00001 -0.00000 -0.00000 -9.99886 -2.54298 0.00000 0.00000 0.00000 -0.00000 -15.00153 -9.23199 -0.30100 2.14400 19.99880 -0.00000 0.00000 -4.22499 0.00000 0.00001 24.99853 -0.00000 0.00000 -2.65400 0.00001 -0.00001 29.90387 2.49650 4.33180 -8.91999 0.00000 0.00000 20.00126 -0.00001 0.00000 -4.86301 0.00000 0.00001 25.00137 -0.00000 -0.00000 -2.76500 0.00001 -0.00001 29.90682 2.49882 4.33150 -8.68899 -0.12599 -2.08701 20.00126 -0.00001 0.00000 -4.53798 -0.00001 0.00000 25.00137 -0.00000 -0.00000 -2.30501 0.00001 0.00000 29.90682 2.49882 4.33150 -8.39100 -0.81700 -3.75800 19.99880 -0.00000 0.00000 -3.04403 0.00001 0.00000 24.99853 -0.00000 0.00000 -1.97498 -0.00002 -0.00002 29.90387 2.49650 4.33180 0.00004 0.58881 0.00002 -0.00005 0.00039 0.00012 -0.14557 5.23307 0.05251 -13.93560 -4.64456 5.35418 
-5.27128 87.37965 -194.58148 -7.75624 3.86857 16.56836 7.02449 0.79240 3.26788 22.90626 -8.88835 18.94069 0.12332 -34.14496 -0.26085 3.32396 22.90671 -10.27882 -0.00868 -43.33464 -0.02897 -0.08979 20.09432 -3.93251 -8.79430 0.58213 3.25897 -24.73815 -20.06429 -26.95134 -0.03229 -36.61186 -0.29216 11.69236 25.16885 17.72346 -0.06402 -44.28428 -0.12794 -1.57851 9.49412 8.87799 -0.02328 24.12745 0.07976 0.53646 2.04075 2.65982 0.04282 17.81301 0.03156 0.70228 2.80887 2.40457 2.24618 0.11517 -0.22236 2.84442 0.15391 5.58260 21.06498 0.02781 -0.07947 17.39812 5.71140 -10.87134 17.40339 0.07560 -0.05020 -50.66910 5.64107 -82.52676 19.39854 -0.25905 -0.21543 172.97955 -4.57090 -179.85265 4.87700 -1.04402 3.60799 -38.47803 -17.27508 3.60901 2.66504 0.00001 0.00001 0.00000 -0.00000 5.17815 2.54300 0.00000 0.00000 -0.00000 0.00000 58.39664 9.23200 -0.30101 2.14398 1.21613 0.00000 -0.00000 4.22502 0.00001 0.00000 1.03798 -0.00000 -0.00000 2.65398 -0.00002 -0.00001 0.85983 -0.00090 -0.17813 8.92000 -0.00001 -0.00001 -77.86217 0.00000 0.00000 4.86300 0.00001 -0.00001 -87.68402 0.00000 -0.00001 2.76499 -0.00005 -0.00002 -68.57468 0.16583 -0.06509 8.68897 -0.12603 -2.08700 -77.86217 0.00000 0.00000 4.53801 0.00000 0.00000 -87.68402 0.00000 -0.00001 2.30501 0.00002 0.00000 -68.57468 0.16583 -0.06509 8.39102 -0.81699 -3.75801 1.21613 0.00000 -0.00000 3.04400 0.00000 0.00000 1.03798 -0.00000 -0.00000 1.97501 0.00001 -0.00002 0.85983 -0.00090 -0.17813 -1.85055 0.38832 -0.22708 -11.42721 1.34386 -6.85786 -17.92339 -0.24638 0.65941 -27.03435 -4.63704 9.57533 -19.26866 0.58402 -0.35790 13.02926 7.87943 60.29802 -24.74111 0.26307 -0.17175 8.63600 10.98898 -5.98286 -4.87701 -1.04399 3.60799 24.66675 4.21003 9.07823 -2.66504 0.00000 -0.00001 -0.00000 -0.00000 -9.99890 -2.54298 0.00000 0.00000 0.00000 -0.00000 -15.00148 -9.23199 -0.30100 2.14400 19.99883 -0.00000 0.00000 -4.22499 0.00000 0.00001 24.99858 -0.00000 0.00000 -2.65400 0.00001 -0.00001 29.90392 2.49654 4.33183 -8.91999 0.00000 0.00000 20.00122 -0.00001 0.00000 -4.86301 0.00000 0.00001 25.00133 -0.00000 -0.00000 -2.76500 0.00001 -0.00001 29.90678 2.49879 4.33154 -8.68899 -0.12599 -2.08701 20.00122 -0.00001 0.00000 -4.53798 -0.00001 0.00000 25.00133 -0.00000 -0.00000 -2.30501 0.00001 0.00000 29.90678 2.49879 4.33154 -8.39100 -0.81700 -3.75800 19.99883 -0.00000 0.00000 -3.04403 0.00001 0.00000 24.99858 -0.00000 0.00000 -1.97498 -0.00002 -0.00002 29.90392 2.49654 4.33183 0.00004 0.58871 0.00002 -0.00005 0.00039 0.00012 -0.14693 5.24605 0.05061 -16.79445 -4.09323 4.20814 
-6.74565 86.25131 -193.15819 -5.97738 4.20305 18.58731 6.94923 0.66928 3.23207 23.03579 -9.96771 20.23501 0.14614 -33.71740 -0.30149 3.80297 23.97075 -13.77926 -0.00717 -43.32471 -0.02873 0.00384 13.51543 -5.22258 -8.83646 0.80661 3.21848 -25.35340 -19.06955 -25.87611 -0.03856 -36.57376 -0.26229 12.56969 26.01352 15.38752 -0.08650 -44.02118 -0.10565 1.04238 16.34523 -0.23554 -0.04591 24.21165 0.09622 0.77552 2.13625 2.39201 0.02890 17.86151 0.04686 0.95811 2.87569 2.14049 2.25213 0.07714 -0.23446 1.97391 0.06025 5.87598 21.20424 0.02774 -0.04101 16.27893 5.78878 -11.08483 17.38365 0.06629 -0.04956 -58.18153 3.97630 -81.20224 19.25607 -0.24886 -0.31207 172.99257 -40.36085 -179.22324 4.87700 -1.04402 3.60799 -38.62252 -17.62300 3.77188 2.66504 0.00001 0.00001 0.00000 -0.00000 5.10926 2.54300 0.00000 0.00000 -0.00000 0.00000 59.01667 9.23200 -0.30101 2.14398 1.51926 0.00000 -0.00000 4.22502 0.00001 0.00000 1.41000 -0.00000 -0.00000 2.65398 -0.00002 -0.00001 1.30074 -0.00110 -0.10923 8.92000 -0.00001 -0.00001 -78.68889 0.00000 0.00000 4.86300 0.00001 -0.00001 -88.57964 0.00000 -0.00001 2.76499 -0.00005 -0.00002 -69.12589 0.10208 -0.03894 8.68897 -0.12603 -2.08700 -78.68889 0.00000 0.00000 4.53801 0.00000 0.00000 -88.57964 0.00000 -0.00001 2.30501 0.00002 0.00000 -69.12589 0.10208 -0.03894 8.39102 -0.81699 -3.75801 1.51926 0.00000 -0.00000 3.04400 0.00000 0.00000 1.41000 -0.00000 -0.00000 1.97501 0.00001 -0.00002 1.30074 -0.00110 -0.10923 -1.80566 0.43489 -0.24375 -12.94209 1.64051 -7.33410 -17.52120 -0.16459 0.44649 -22.32424 -6.53545 10.15311 -19.02756 0.27511 -0.05292 12.69001 5.56457 59.96830 -24.86843 0.35906 -0.23122 2.77098 1.94085 -7.62285 -4.87701 -1.04399 3.60799 24.66672 4.20998 9.07827 -2.66504 0.00000 -0.00001 -0.00000 -0.00000 -9.99893 -2.54298 0.00000 0.00000 0.00000 -0.00000 -15.00144 -9.23199 -0.30100 2.14400 19.99887 -0.00000 0.00000 -4.22499 0.00000 0.00001 24.99862 -0.00000 0.00000 -2.65400 0.00001 -0.00001 29.90397 2.49657 4.33186 -8.91999 0.00000 0.00000 20.00118 -0.00001 0.00000 -4.86301 0.00000 0.00001 25.00129 -0.00000 -0.00000 -2.76500 0.00001 -0.00001 29.90674 2.49875 4.33158 -8.68899 -0.12599 -2.08701 20.00118 -0.00001 0.00000 -4.53798 -0.00001 0.00000 25.00129 -0.00000 -0.00000 -2.30501 0.00001 0.00000 29.90674 2.49875 4.33158 -8.39100 -0.81700 -3.75800 19.99887 -0.00000 0.00000 -3.04403 0.00001 0.00000 24.99862 -0.00000 0.00000 -1.97498 -0.00002 -0.00002 29.90397 2.49657 4.33186 0.00004 0.58863 0.00002 -0.00005 0.00039 0.00012 -0.14698 5.25916 0.04735 -18.77672 -3.77353 3.41769 
-8.25331 85.14935 -191.87013 -4.11455 4.74306 20.42717 6.84203 0.52258 3.20586 23.57832 -11.30572 21.94688 0.18426 -33.34448 -0.35613 3.89274 24.78647 -17.30108 -0.00109 -43.32044 -0.02501 0.05065 9.27701 -6.01103 -8.85178 1.05155 3.18110 -26.33223 -18.35627 -24.80355 -0.05552 -36.20398 -0.23316 13.62609 26.89580 12.06879 -0.07414 -43.84412 -0.06632 4.15215 20.89546 -8.13562 -0.06546 24.29321 0.10798 0.91464 2.19990 2.17998 0.00741 17.92785 0.05932 0.98872 2.87113 1.94670 2.26466 0.04777 -0.24276 1.25989 -0.00551 6.02751 21.31849 0.02441 -0.01186 16.01021 6.12526 -9.72672 17.25637 0.07830 -0.05031 -67.17426 3.15307 -81.02142 19.50557 -0.15786 -0.45742 171.84628 -17.43588 179.88396 4.87700 -1.04402 3.60799 -38.70950 -17.83458 3.87057 2.66504 0.00001 0.00001 0.00000 -0.00000 5.06745 2.54300 0.00000 0.00000 -0.00000 0.00000 59.39294 9.23200 -0.30101 2.14398 1.70321 0.00000 -0.00000 4.22502 0.00001 0.00000 1.63576 -0.00000 -0.00000 2.65398 -0.00002 -0.00001 1.56831 -0.00127 -0.06743 8.92000 -0.00001 -0.00001 -79.19059 0.00000 0.00000 4.86300 0.00001 -0.00001 -89.12314 0.00000 -0.00001 2.76499 -0.00005 -0.00002 -69.46037 0.06316 -0.02367 8.68897 -0.12603 -2.08700 -79.19059 0.00000 0.00000 4.53801 0.00000 0.00000 -89.12314 0.00000 -0.00001 2.30501 0.00002 0.00000 -69.46037 0.06316 -0.02367 8.39102 -0.81699 -3.75801 1.70321 0.00000 -0.00000 3.04400 0.00000 0.00000 1.63576 -0.00000 -0.00000 1.97501 0.00001 -0.00002 1.56831 -0.00127 -0.06743 -1.75005 0.47529 -0.25362 -14.48656 1.94202 -7.72223 -17.01436 -0.09565 0.28006 -18.22353 -7.59409 10.35300 -18.96977 0.02117 0.09430 12.60992 3.90239 60.16798 -24.99681 0.41023 -0.17807 -2.47289 -4.02711 -7.73825 -4.87701 -1.04399 3.60799 24.66668 4.20993 9.07831 -2.66504 0.00000 -0.00001 -0.00000 -0.00000 -9.99897 -2.54298 0.00000 0.00000 0.00000 -0.00000 -15.00139 -9.23199 -0.30100 2.14400 19.99891 -0.00000 0.00000 -4.22499 0.00000 0.00001 24.99866 -0.00000 0.00000 -2.65400 0.00001 -0.00001 29.90402 2.49660 4.33190 -8.91999 0.00000 0.00000 20.00115 -0.00001 0.00000 -4.86301 0.00000 0.00001 25.00125 -0.00000 -0.00000 -2.76500 0.00001 -0.00001 29.90670 2.49871 4.33162 -8.68899 -0.12599 -2.08701 20.00115 -0.00001 0.00000 -4.53798 -0.00001 0.00000 25.00125 -0.00000 -0.00000 -2.30501 0.00001 0.00000 29.90670 2.49871 4.33162 -8.39100 -0.81700 -3.75800 19.99891 -0.00000 0.00000 -3.04403 0.00001 0.00000 24.99866 -0.00000 0.00000 -1.97498 -0.00002 -0.00002 29.90402 2.49660 4.33190 0.00004 0.58858 0.00002 -0.00005 0.00039 0.00012 -0.14357 5.28588 0.04253 -20.91080 -3.71429 2.44915 
